<svg version="1.2" xmlns="http://www.w3.org/2000/svg" viewBox="0 0 100 100" width="100" height="100"><style>.a{fill:#04c69d}</style><path fill-rule="evenodd" class="a" d="m18.4 2h2.5c9.4 0 17 7.6 17 17v61.4c0 9.4-7.6 17-17 17h-2.5c-9.4 0-17-7.6-17-17v-61.4c0-9.4 7.6-17 17-17z"/><path fill-rule="evenodd" class="a" d="m79.6 2h2.5c9.4 0 17 7.6 17 17v61.4c0 9.4-7.6 17-17 17h-2.5c-9.4 0-17-7.6-17-17v-61.4c0-9.4 7.6-17 17-17z"/><path fill-rule="evenodd" class="a" d="m81.5 45.2v9.5h-63.8v-9.5z"/></svg>