<svg xmlns="http://www.w3.org/2000/svg" xmlns:xlink="http://www.w3.org/1999/xlink" width="1500" zoomAndPan="magnify" viewBox="0 0 1125 1124.99995" height="1500" preserveAspectRatio="xMidYMid meet" version="1.0"><defs><clipPath id="f1962ca6d0"><path d="M 0 0 L 774.78125 0 L 774.78125 1125 L 0 1125 Z M 0 0 " clip-rule="nonzero"/></clipPath><clipPath id="65e083b83f"><path d="M 75 0 L 699.78125 0 C 741.203125 0 774.78125 33.578125 774.78125 75 L 774.78125 1050 C 774.78125 1091.421875 741.203125 1125 699.78125 1125 L 75 1125 C 33.578125 1125 0 1091.421875 0 1050 L 0 75 C 0 33.578125 33.578125 0 75 0 Z M 75 0 " clip-rule="nonzero"/></clipPath><clipPath id="87351d9ede"><path d="M 172.21875 87.785156 L 1125 87.785156 L 1125 1037.214844 L 172.21875 1037.214844 Z M 172.21875 87.785156 " clip-rule="nonzero"/></clipPath><clipPath id="4f363b5496"><path d="M 247.21875 87.785156 L 1050 87.785156 C 1091.421875 87.785156 1125 121.363281 1125 162.785156 L 1125 962.214844 C 1125 1003.636719 1091.421875 1037.214844 1050 1037.214844 L 247.21875 1037.214844 C 205.796875 1037.214844 172.21875 1003.636719 172.21875 962.214844 L 172.21875 162.785156 C 172.21875 121.363281 205.796875 87.785156 247.21875 87.785156 Z M 247.21875 87.785156 " clip-rule="nonzero"/></clipPath><clipPath id="d1db899f47"><path d="M 172.21875 87.785156 L 1124.71875 87.785156 L 1124.71875 1037.285156 L 172.21875 1037.285156 Z M 172.21875 87.785156 " clip-rule="nonzero"/></clipPath><clipPath id="a11166ab0b"><path d="M 247.21875 87.785156 L 1050 87.785156 C 1091.421875 87.785156 1125 121.363281 1125 162.785156 L 1125 962.214844 C 1125 1003.636719 1091.421875 1037.214844 1050 1037.214844 L 247.21875 1037.214844 C 205.796875 1037.214844 172.21875 1003.636719 172.21875 962.214844 L 172.21875 162.785156 C 172.21875 121.363281 205.796875 87.785156 247.21875 87.785156 Z M 247.21875 87.785156 " clip-rule="nonzero"/></clipPath><clipPath id="8fce70a84d"><path d="M 714.855469 223.601562 L 834.710938 223.601562 L 834.710938 473 L 714.855469 473 Z M 714.855469 223.601562 " clip-rule="nonzero"/></clipPath><clipPath id="abbbfbc8df"><path d="M 774.78125 223.601562 C 807.878906 223.601562 834.710938 250.433594 834.710938 283.53125 L 834.710938 412.796875 C 834.710938 445.894531 807.878906 472.726562 774.78125 472.726562 C 741.683594 472.726562 714.855469 445.894531 714.855469 412.796875 L 714.855469 283.53125 C 714.855469 250.433594 741.683594 223.601562 774.78125 223.601562 Z M 774.78125 223.601562 " clip-rule="nonzero"/></clipPath><clipPath id="7f46e107b3"><path d="M 892.640625 223.601562 L 1012.5 223.601562 L 1012.5 473 L 892.640625 473 Z M 892.640625 223.601562 " clip-rule="nonzero"/></clipPath><clipPath id="ee883b4a45"><path d="M 952.570312 223.601562 C 985.667969 223.601562 1012.5 250.433594 1012.5 283.53125 L 1012.5 412.796875 C 1012.5 445.894531 985.667969 472.726562 952.570312 472.726562 C 919.472656 472.726562 892.640625 445.894531 892.640625 412.796875 L 892.640625 283.53125 C 892.640625 250.433594 919.472656 223.601562 952.570312 223.601562 Z M 952.570312 223.601562 " clip-rule="nonzero"/></clipPath><clipPath id="2be00787d3"><path d="M 740.03125 326.074219 L 989.199219 326.074219 L 989.199219 370.25 L 740.03125 370.25 Z M 740.03125 326.074219 " clip-rule="nonzero"/></clipPath><clipPath id="9bcf045eca"><path d="M 989.199219 348.164062 C 989.199219 360.363281 979.308594 370.25 967.113281 370.25 L 762.160156 370.25 C 749.964844 370.25 740.074219 360.363281 740.074219 348.164062 C 740.074219 335.964844 749.964844 326.074219 762.160156 326.074219 L 967.113281 326.074219 C 979.308594 326.074219 989.199219 335.964844 989.199219 348.164062 Z M 989.199219 348.164062 " clip-rule="nonzero"/></clipPath></defs><g clip-path="url(#f1962ca6d0)"><g clip-path="url(#65e083b83f)"><path fill="#04c69d" d="M 0 0 L 774.78125 0 L 774.78125 1125.855469 L 0 1125.855469 Z M 0 0 " fill-opacity="1" fill-rule="nonzero"/></g></g><g clip-path="url(#87351d9ede)"><g clip-path="url(#4f363b5496)"><path fill="#ffffff" d="M 172.21875 87.785156 L 1125.355469 87.785156 L 1125.355469 1037.214844 L 172.21875 1037.214844 Z M 172.21875 87.785156 " fill-opacity="1" fill-rule="nonzero"/></g></g><g clip-path="url(#d1db899f47)"><g clip-path="url(#a11166ab0b)"><path stroke-linecap="butt" transform="matrix(0.75, 0, 0, 0.75, 172.217398, 87.784842)" fill="none" stroke-linejoin="miter" d="M 100.001805 0.000418946 L 1170.376828 0.000418946 C 1225.605996 0.000418946 1270.376831 44.771253 1270.376831 100.000421 L 1270.376831 1165.906695 C 1270.376831 1221.135863 1225.605996 1265.906697 1170.376828 1265.906697 L 100.001805 1265.906697 C 44.772637 1265.906697 0.00180244 1221.135863 0.00180244 1165.906695 L 0.00180244 100.000421 C 0.00180244 44.771253 44.772637 0.000418946 100.001805 0.000418946 Z M 100.001805 0.000418946 " stroke="#04c69d" stroke-width="156" stroke-opacity="1" stroke-miterlimit="4"/></g></g><g clip-path="url(#8fce70a84d)"><g clip-path="url(#abbbfbc8df)"><path fill="#04c69d" d="M 714.855469 223.601562 L 834.710938 223.601562 L 834.710938 472.679688 L 714.855469 472.679688 Z M 714.855469 223.601562 " fill-opacity="1" fill-rule="nonzero"/></g></g><g clip-path="url(#7f46e107b3)"><g clip-path="url(#ee883b4a45)"><path fill="#04c69d" d="M 892.640625 223.601562 L 1012.5 223.601562 L 1012.5 472.679688 L 892.640625 472.679688 Z M 892.640625 223.601562 " fill-opacity="1" fill-rule="nonzero"/></g></g><g clip-path="url(#2be00787d3)"><g clip-path="url(#9bcf045eca)"><path fill="#04c69d" d="M 989.199219 326.074219 L 989.199219 370.25 L 740.03125 370.25 L 740.03125 326.074219 Z M 989.199219 326.074219 " fill-opacity="1" fill-rule="nonzero"/></g></g></svg>