<svg xmlns="http://www.w3.org/2000/svg" xmlns:xlink="http://www.w3.org/1999/xlink" width="1500" zoomAndPan="magnify" viewBox="0 0 1125 1124.99995" height="1500" preserveAspectRatio="xMidYMid meet" version="1.0"><defs><clipPath id="032f2f74f9"><path d="M 0 175.570312 L 952.78125 175.570312 L 952.78125 1125 L 0 1125 Z M 0 175.570312 " clip-rule="nonzero"/></clipPath><clipPath id="ce5e0f47a3"><path d="M 172.21875 0 L 1125 0 L 1125 949.429688 L 172.21875 949.429688 Z M 172.21875 0 " clip-rule="nonzero"/></clipPath><clipPath id="b372a3b63a"><path d="M 172.21875 0 L 1124.71875 0 L 1124.71875 949.429688 L 172.21875 949.429688 Z M 172.21875 0 " clip-rule="nonzero"/></clipPath><clipPath id="2897d4c144"><path d="M 655.136719 175.570312 L 774.992188 175.570312 L 774.992188 425 L 655.136719 425 Z M 655.136719 175.570312 " clip-rule="nonzero"/></clipPath><clipPath id="c9b08873d3"><path d="M 715.066406 175.570312 C 748.164062 175.570312 774.992188 202.398438 774.992188 235.496094 L 774.992188 364.765625 C 774.992188 397.863281 748.164062 424.695312 715.066406 424.695312 C 681.96875 424.695312 655.136719 397.863281 655.136719 364.765625 L 655.136719 235.496094 C 655.136719 202.398438 681.96875 175.570312 715.066406 175.570312 Z M 715.066406 175.570312 " clip-rule="nonzero"/></clipPath><clipPath id="b7208c2220"><path d="M 832.925781 175.570312 L 952.78125 175.570312 L 952.78125 425 L 832.925781 425 Z M 832.925781 175.570312 " clip-rule="nonzero"/></clipPath><clipPath id="5844784dc3"><path d="M 892.855469 175.570312 C 925.953125 175.570312 952.78125 202.398438 952.78125 235.496094 L 952.78125 364.765625 C 952.78125 397.863281 925.953125 424.695312 892.855469 424.695312 C 859.757812 424.695312 832.925781 397.863281 832.925781 364.765625 L 832.925781 235.496094 C 832.925781 202.398438 859.757812 175.570312 892.855469 175.570312 Z M 892.855469 175.570312 " clip-rule="nonzero"/></clipPath><clipPath id="80a816a538"><path d="M 680.3125 278.042969 L 929.480469 278.042969 L 929.480469 322.21875 L 680.3125 322.21875 Z M 680.3125 278.042969 " clip-rule="nonzero"/></clipPath><clipPath id="4c1a75ddc0"><path d="M 929.480469 300.132812 C 929.480469 312.328125 919.59375 322.21875 907.394531 322.21875 L 702.445312 322.21875 C 690.246094 322.21875 680.355469 312.328125 680.355469 300.132812 C 680.355469 287.933594 690.246094 278.042969 702.445312 278.042969 L 907.394531 278.042969 C 919.59375 278.042969 929.480469 287.933594 929.480469 300.132812 Z M 929.480469 300.132812 " clip-rule="nonzero"/></clipPath></defs><g clip-path="url(#032f2f74f9)"><path fill="#04c69d" d="M 0 175.570312 L 953.140625 175.570312 L 953.140625 1125 L 0 1125 Z M 0 175.570312 " fill-opacity="1" fill-rule="nonzero"/></g><g clip-path="url(#ce5e0f47a3)"><path fill="#ffffff" d="M 172.21875 0 L 1125.355469 0 L 1125.355469 949.429688 L 172.21875 949.429688 Z M 172.21875 0 " fill-opacity="1" fill-rule="nonzero"/></g><g clip-path="url(#b372a3b63a)"><path stroke-linecap="butt" transform="matrix(0.75, 0, 0, 0.75, 172.217398, 0.000163534)" fill="none" stroke-linejoin="miter" d="M 0.00180244 -0.000218045 L 1270.376831 -0.000218045 L 1270.376831 1265.90606 L 0.00180244 1265.90606 Z M 0.00180244 -0.000218045 " stroke="#04c69d" stroke-width="200" stroke-opacity="1" stroke-miterlimit="4"/></g><g clip-path="url(#2897d4c144)"><g clip-path="url(#c9b08873d3)"><path fill="#04c69d" d="M 655.136719 175.570312 L 774.992188 175.570312 L 774.992188 424.648438 L 655.136719 424.648438 Z M 655.136719 175.570312 " fill-opacity="1" fill-rule="nonzero"/></g></g><g clip-path="url(#b7208c2220)"><g clip-path="url(#5844784dc3)"><path fill="#04c69d" d="M 832.925781 175.570312 L 952.78125 175.570312 L 952.78125 424.648438 L 832.925781 424.648438 Z M 832.925781 175.570312 " fill-opacity="1" fill-rule="nonzero"/></g></g><g clip-path="url(#80a816a538)"><g clip-path="url(#4c1a75ddc0)"><path fill="#04c69d" d="M 929.480469 278.042969 L 929.480469 322.21875 L 680.3125 322.21875 L 680.3125 278.042969 Z M 929.480469 278.042969 " fill-opacity="1" fill-rule="nonzero"/></g></g></svg>